#!OML:ASF F:\VICON\USERDATA\INSTALL\rory3\rory3.ASF
:FULLY-SPECIFIED
:DEGREES
54
root 0.7031154551870167 17.69902276051166 19.820753566191698 -2.2073706105139737 -3.6043856230151765 -4.980231973131106
lfemur -25.517172116311375 -3.7448992487864876 -15.177541456044516
ltibia 23.08510075761393
lfoot -2.5137536737654513 -2.7144457600436676
ltoes -2.8523723725834262
rfemur 12.161765289292587 4.8212085999178385 30.158887950562008
rtibia 41.850315625040956
rfoot -1.0059053310127988 0.11561199013997836
rtoes -4.110873857407098
lowerback 9.04076988586364 2.433993762167939 4.64783263177534
upperback 0.10025934386872276 3.818814800363996 1.2014764148989732
thorax -4.830647560002641 1.781977698626414 -1.9077010800987857
lowerneck -16.594608126099743 -3.5284065622468734 -1.3993529402878369
upperneck 20.436696703855745 -4.762755959279988 1.0456059000934101
head 9.223432196580868 -2.230283208647551 -0.01477084109670701
lclavicle -9.634804965274356e-16 -8.119962517756967e-16
lhumerus -39.15505600995843 11.734371766165228 78.88994626970573
lradius 15.613427892527405
lwrist -0.3163319460840306
lhand -27.619355590360918 21.929581493239127
lfingers 7.125020000000057
lthumb -1.0179473342557477 51.89514255527895
rclavicle -9.634804965274356e-16 -8.119962517756967e-16
rhumerus -21.694349697312724 -14.569972285080269 -80.64191083144162
rradius 30.736219675749574
rwrist -0.5305441837576206
rhand -17.79203051780838 30.585271355268393
rfingers 7.125020000000057
rthumb 8.471340320773583 -6.290500578187188
55
root 0.7465136304675951 17.763934576380795 21.107231107996988 -3.062288336308014 -3.5443446585893232 -3.4438867139183476
lfemur -23.053413378762677 -3.200183021063713 -17.797463363228218
ltibia 26.907293050472507
lfoot -3.2547431552413295 -3.7423071873532816
ltoes -1.3155754887029634
rfemur 8.006713935505209 3.4582548736369563 27.469413948670915
rtibia 54.63949785851623
rfoot 10.806724506514307 0.929723204183782
rtoes 4.079810676949247
lowerback 9.252417771666792 2.430427103910516 3.4534342263582856
upperback 0.1014216170344967 3.676128601877516 0.8566337111496595
thorax -4.97970426988147 1.7326779946263637 -1.5153522349203672
lowerneck -16.429501691534064 -3.4794139068558017 -1.4330061096531026
upperneck 20.745803876238867 -4.70500193916917 1.1118202486407796
head 9.300690635454421 -2.1995224786993512 0.019340450816936028
lclavicle -7.513522671498841e-16 -6.477447532957264e-16
lhumerus -39.06173054035323 12.184170833112214 78.59403926249533
lradius 15.531431174024945
lwrist 0.2128312758326416
lhand -27.358360185811303 22.918625149654837
lfingers 7.125020000000057
lthumb -0.765883651801312 52.87867754974479
rclavicle -7.513522671498841e-16 -6.477447532957264e-16
rhumerus -23.410873036890585 -16.50963945944985 -79.87991416669891
rradius 29.681029164097446
rwrist 1.0289300770582468
rhand -17.643117965390818 30.64796345701845
rfingers 7.125020000000057
rthumb 8.615101399642635 -6.6495390049042395
56
root 0.7734346451068622 17.831182766764737 22.03227928946397 -3.7999130311096785 -3.7381273856430943 -1.9736580688839431
lfemur -19.908869558534906 -2.984862754130615 -20.174834787521288
ltibia 28.862980544199992
lfoot -5.205426311740412 -3.183170897796843
ltoes 0.09106108718638595
rfemur 1.9276157810555805 2.013419237988999 24.91288409389439
rtibia 67.74739820363823
rfoot 18.416110430459373 -0.42481644903887794
rtoes 12.161209973887171
lowerback 9.645222353154237 2.3530216151704 2.1660564128741013
upperback 0.16197439399727415 3.428908323183056 0.5830178399958411
thorax -5.172946885656422 1.6358356959137215 -1.0122115652126373
lowerneck -16.401731734122563 -3.297947826458938 -1.4650261607715196
upperneck 20.857637353057306 -4.448020599325938 1.1056048130190965
head 9.330314376099498 -2.0793637404710457 0.050753790597727944
lclavicle -6.71076672817868e-16 -5.85587128769141e-16
lhumerus -38.4557924672105 11.790767493652174 78.69746423733035
lradius 15.828305357689366
lwrist 1.388449303660387
lhand -27.781613702520634 22.943506902849002
lfingers 7.125020000000058
lthumb -1.1746203748452189 52.90051973882357
rclavicle -6.71076672817868e-16 -5.85587128769141e-16
rhumerus -24.912293438317025 -18.39725864636239 -79.19776758413747
rradius 28.112114299552402
rwrist 2.9165598651749223
rhand -17.47955460839787 30.657465640798875
rfingers 7.125020000000058
rthumb 8.773057993886152 -7.137863681497677
57
root 0.7942430601630402 17.890359060700252 22.80575363042372 -4.333418883045384 -3.904541829061616 -0.7473091982434552
lfemur -16.421013188594653 -3.0138970115737096 -22.083590599857917
ltibia 29.62216350051422
lfoot -7.617240190818794 -1.7765130125262578
ltoes 1.076544105766998
rfemur -4.882982970142873 0.5581967188521348 22.995957280015467
rtibia 79.22238709836758
rfoot 19.269374934331005 -3.1992877080958704
rtoes 17.05501895495665
lowerback 10.116456435281826 2.15838305856692 1.0098789492782023
upperback 0.2780379288983857 3.0408821816134055 0.43366195098557436
thorax -5.3311313717486115 1.4698022289707477 -0.42643491756443097
lowerneck -16.384153438866726 -3.0212356743842292 -1.5049202031711877
upperneck 20.84296016315691 -4.037902201998694 1.0400573804290034
head 9.313157421850695 -1.8957648253695552 0.08047000201526966
lclavicle -5.298583287155493e-16 -4.762413539295753e-16
lhumerus -37.2604649263378 10.837806789406125 79.10439963128565
lradius 16.66976576601857
lwrist 2.780748833615238
lhand -28.599009952866563 22.023141788004835
lfingers 7.125020000000058
lthumb -1.9640045403259245 51.97982086206435
rclavicle -5.298583287155493e-16 -4.762413539295753e-16
rhumerus -25.94542190476521 -19.997151710395325 -78.57017389981068
rradius 26.73040887067868
rwrist 4.984383446843636
rhand -17.31257273535397 30.637074573777944
rfingers 7.125020000000058
rthumb 8.934285470819997 -7.492004681853735
58
root 0.8034729670334043 17.931440896964897 23.383289983318612 -4.699217962406831 -3.840468620024741 0.11109297798131657
lfemur -13.172623355738342 -3.237627969609486 -23.57513997603072
ltibia 29.588180989330063
lfoot -10.060580090028552 -0.37128534424279636
ltoes 1.4894669656649802
rfemur -11.722165568663783 -0.8889051672198081 21.814257924445606
rtibia 87.18691672342521
rfoot 14.288200197068507 -5.92670434561973
rtoes 17.85648012030434
lowerback 10.503550819207868 1.8114842852314506 0.08019478569754024
upperback 0.4061072020425503 2.4737225125946645 0.4038691264714702
thorax -5.435440294045477 1.2140889536876485 0.15306374458334016
lowerneck -16.297319401080042 -2.732725449607246 -1.5642660626076668
upperneck 20.77099919424948 -3.5968779383382605 0.9119186455388484
head 9.260051288988436 -1.7049875505297054 0.09735144952213537
lclavicle -5.468866167674799e-16 -4.894264015230133e-16
lhumerus -35.79423898212843 9.453103907649867 79.56138333105999
lradius 17.383847699994753
lwrist 3.6391333787278857
lhand -29.328019767955645 20.93626773461135
lfingers 7.125020000000058
lthumb -2.6680453166410465 50.89426339593193
rclavicle -5.468866167674799e-16 -4.894264015230133e-16
rhumerus -26.797945348142186 -21.434489633021826 -78.13165920393077
rradius 25.402410692765493
rwrist 6.594809550790875
rhand -17.17277588356189 30.49197178513124
rfingers 7.125020000000058
rthumb 9.069162557596393 -7.641508101624185
